<svg width="29" height="30" viewBox="0 0 29 30" fill="none" xmlns="http://www.w3.org/2000/svg">
<path d="M7.03307 26.2003L6.71946 25.2507L7.15548 25.1067L7.54887 25.3435L7.03307 26.2003ZM3.29974 22.4669L4.14209 21.928L4.39972 22.3307L4.24813 22.784L3.29974 22.4669ZM1.43307 28.0498L1.74669 28.9994C1.38734 29.1181 0.99178 29.0237 0.724672 28.7556C0.457564 28.4876 0.364678 28.0916 0.484682 27.7327L1.43307 28.0498ZM7.54887 25.3435C9.32081 26.4104 12.1627 27.0498 14.4997 27.0498V29.0498C11.905 29.0498 8.68027 28.3592 6.51728 27.057L7.54887 25.3435ZM14.4997 27.0498C21.1646 27.0498 26.5664 21.6507 26.5664 14.9918H28.5664C28.5664 22.7566 22.2679 29.0498 14.4997 29.0498V27.0498ZM26.5664 14.9918C26.5664 8.33289 21.1646 2.93359 14.4997 2.93359V0.933594C22.268 0.933594 28.5664 7.22711 28.5664 14.9918H26.5664ZM14.4997 2.93359C7.83489 2.93359 2.43307 8.33289 2.43307 14.9918H0.433074C0.433074 7.22711 6.73153 0.933594 14.4997 0.933594V2.93359ZM2.43307 14.9918C2.43307 17.4686 2.98383 20.1176 4.14209 21.928L2.45739 23.0059C1.02098 20.7607 0.433074 17.6898 0.433074 14.9918H2.43307ZM7.34669 27.1498L1.74669 28.9994L1.11946 27.1003L6.71946 25.2507L7.34669 27.1498ZM0.484682 27.7327L2.35135 22.1498L4.24813 22.784L2.38147 28.3669L0.484682 27.7327Z" fill="white"/>
</svg>
