<svg width="273" height="44" viewBox="0 0 273 44" fill="none" xmlns="http://www.w3.org/2000/svg">
<path d="M0 0H264C268.971 0 273 4.02944 273 9V35C273 39.9706 268.971 44 264 44H0V0Z" fill="#2C2D3A"/>
<path fill-rule="evenodd" clip-rule="evenodd" d="M176.886 17.9998H180C181.104 17.9998 182 18.8968 182 19.9998V21.9998H162V19.9998C162 18.8968 162.897 17.9998 164 17.9998H167.114C166.663 17.7648 166.236 17.4778 165.879 17.1218C164.709 15.9518 164.709 14.0488 165.879 12.8798C167.012 11.7468 168.986 11.7468 170.121 12.8778C171.758 14.5148 171.979 17.5958 171.998 17.9418C171.999 17.9533 171.997 17.9636 171.994 17.9738C171.992 17.9823 171.99 17.9907 171.99 17.9998H172.01C172.01 17.9907 172.008 17.9821 172.006 17.9737C172.003 17.9636 172.001 17.9537 172.002 17.9428C172.022 17.5968 172.242 14.5158 173.879 12.8788C175.014 11.7458 176.986 11.7468 178.121 12.8778C179.29 14.0498 179.29 15.9528 178.121 17.1218C177.764 17.4778 177.337 17.7648 176.886 17.9998ZM167.293 15.7078C166.903 15.3168 166.903 14.6828 167.293 14.2928C167.481 14.1038 167.732 14.0008 168 14.0008C168.268 14.0008 168.519 14.1038 168.707 14.2928C169.297 14.8828 169.641 15.9408 169.825 16.8228C168.945 16.6398 167.879 16.2938 167.293 15.7078ZM174.174 16.8248C174.359 15.9418 174.702 14.8838 175.293 14.2938C175.481 14.1038 175.732 14.0008 176 14.0008C176.268 14.0008 176.519 14.1038 176.706 14.2918C177.096 14.6828 177.097 15.3168 176.707 15.7078C176.116 16.2988 175.057 16.6428 174.174 16.8248ZM163 23.9998V29.9998C163 31.1028 163.897 31.9998 165 31.9998H171V23.9998H163ZM173 23.9998V31.9998H179C180.104 31.9998 181 31.1028 181 29.9998V23.9998H173Z" fill="#B9BBBE"/>
<path d="M201 12C199.895 12 199 12.8954 199 14V30C199 31.1046 199.895 32 201 32H221C222.105 32 223 31.1046 223 30V14C223 12.8954 222.105 12 221 12H201ZM208.764 21.448V25.48C207.9 26.044 206.88 26.356 205.74 26.356C203.112 26.356 201.66 24.628 201.66 22.072C201.66 19.504 203.232 17.764 205.788 17.764C206.808 17.764 207.66 18.004 208.32 18.376L208.044 20.164C207.42 19.768 206.688 19.456 205.836 19.456C204.408 19.456 203.712 20.512 203.712 22.06C203.712 23.62 204.432 24.712 205.86 24.712C206.316 24.712 206.64 24.616 206.976 24.448V22.972H205.428V21.448H208.764ZM210.548 17.92H212.6V26.2H210.548V17.92ZM219.472 17.92V19.636H216.556V21.328H218.86V23.044H216.556V26.2H214.516V17.92H219.472Z" fill="#B9BBBE"/>
<path d="M249 32C255.075 32 260 27.0751 260 21C260 14.9249 255.075 10 249 10C242.925 10 238 14.9249 238 21C238 27.0751 242.925 32 249 32Z" fill="#CFCFCF"/>
<path d="M244.425 24.4342C244.453 24.5436 245.139 27.1102 248.999 27.1102C252.86 27.1102 253.546 24.5436 253.574 24.4342C253.607 24.3016 253.547 24.1641 253.429 24.0956C253.31 24.0278 253.161 24.048 253.062 24.1427C253.051 24.1543 251.868 25.2769 248.999 25.2769C246.131 25.2769 244.948 24.1543 244.937 24.1433C244.878 24.0852 244.8 24.0547 244.722 24.0547C244.67 24.0547 244.618 24.0675 244.571 24.0938C244.452 24.1622 244.392 24.301 244.425 24.4342V24.4342Z" fill="#4F5660"/>
<path d="M245.333 20.3891C246.177 20.3891 246.861 19.4315 246.861 18.2502C246.861 17.0689 246.177 16.1113 245.333 16.1113C244.49 16.1113 243.806 17.0689 243.806 18.2502C243.806 19.4315 244.49 20.3891 245.333 20.3891Z" fill="#4F5660"/>
<path d="M252.666 20.3891C253.51 20.3891 254.194 19.4315 254.194 18.2502C254.194 17.0689 253.51 16.1113 252.666 16.1113C251.823 16.1113 251.139 17.0689 251.139 18.2502C251.139 19.4315 251.823 20.3891 252.666 20.3891Z" fill="#4F5660"/>
<path d="M15.158 26.168C14.4393 26.168 13.814 26.0373 13.282 25.776C12.75 25.5147 12.3393 25.1507 12.05 24.684C11.7607 24.2173 11.616 23.676 11.616 23.06H12.848C12.848 23.4427 12.9367 23.7973 13.114 24.124C13.2913 24.4413 13.548 24.698 13.884 24.894C14.2293 25.0807 14.654 25.174 15.158 25.174C15.8207 25.174 16.334 25.0153 16.698 24.698C17.062 24.3807 17.244 23.984 17.244 23.508C17.244 23.116 17.16 22.8033 16.992 22.57C16.824 22.3273 16.5953 22.1313 16.306 21.982C16.026 21.8327 15.6993 21.702 15.326 21.59C14.962 21.478 14.5793 21.352 14.178 21.212C13.422 20.9507 12.862 20.6287 12.498 20.246C12.134 19.854 11.952 19.3453 11.952 18.72C11.9427 18.1973 12.064 17.7353 12.316 17.334C12.568 16.9233 12.9227 16.606 13.38 16.382C13.8467 16.1487 14.3973 16.032 15.032 16.032C15.6573 16.032 16.1987 16.1487 16.656 16.382C17.1227 16.6153 17.482 16.9373 17.734 17.348C17.9953 17.7587 18.1307 18.2253 18.14 18.748H16.908C16.908 18.4773 16.838 18.2113 16.698 17.95C16.558 17.6793 16.3433 17.46 16.054 17.292C15.774 17.124 15.4193 17.04 14.99 17.04C14.458 17.0307 14.0193 17.166 13.674 17.446C13.338 17.726 13.17 18.1133 13.17 18.608C13.17 19.028 13.2867 19.35 13.52 19.574C13.7627 19.798 14.0987 19.9847 14.528 20.134C14.9573 20.274 15.452 20.4373 16.012 20.624C16.4787 20.792 16.8987 20.988 17.272 21.212C17.6453 21.436 17.9347 21.7253 18.14 22.08C18.3547 22.4347 18.462 22.8873 18.462 23.438C18.462 23.9047 18.3407 24.348 18.098 24.768C17.8553 25.1787 17.4867 25.5147 16.992 25.776C16.5067 26.0373 15.8953 26.168 15.158 26.168ZM23.1818 26.168C22.5191 26.168 21.9311 26.0187 21.4178 25.72C20.9044 25.412 20.4984 24.9873 20.1998 24.446C19.9104 23.9047 19.7658 23.2653 19.7658 22.528C19.7658 21.8 19.9104 21.1653 20.1998 20.624C20.4891 20.0733 20.8904 19.6487 21.4038 19.35C21.9264 19.042 22.5284 18.888 23.2097 18.888C23.8818 18.888 24.4604 19.042 24.9458 19.35C25.4404 19.6487 25.8184 20.0453 26.0798 20.54C26.3411 21.0347 26.4718 21.5667 26.4718 22.136C26.4718 22.2387 26.4671 22.3413 26.4578 22.444C26.4578 22.5467 26.4578 22.6633 26.4578 22.794H20.9278C20.9558 23.326 21.0771 23.7693 21.2918 24.124C21.5158 24.4693 21.7911 24.7307 22.1178 24.908C22.4538 25.0853 22.8084 25.174 23.1818 25.174C23.6671 25.174 24.0731 25.062 24.3998 24.838C24.7264 24.614 24.9644 24.3107 25.1138 23.928H26.2758C26.0891 24.572 25.7298 25.1087 25.1978 25.538C24.6751 25.958 24.0031 26.168 23.1818 26.168ZM23.1818 19.882C22.6218 19.882 22.1224 20.0547 21.6838 20.4C21.2544 20.736 21.0071 21.2307 20.9417 21.884H25.3098C25.2818 21.2587 25.0671 20.7687 24.6658 20.414C24.2644 20.0593 23.7698 19.882 23.1818 19.882ZM28.0305 26V19.056H29.0945L29.1645 20.302C29.3885 19.8633 29.7105 19.518 30.1305 19.266C30.5505 19.014 31.0265 18.888 31.5585 18.888C32.3798 18.888 33.0331 19.14 33.5185 19.644C34.0131 20.1387 34.2605 20.904 34.2605 21.94V26H33.0845V22.066C33.0845 20.6193 32.4871 19.896 31.2925 19.896C30.6951 19.896 30.1958 20.1153 29.7945 20.554C29.4025 20.9833 29.2065 21.5993 29.2065 22.402V26H28.0305ZM39.1922 26.168C38.5015 26.168 37.8948 26.0093 37.3722 25.692C36.8588 25.3747 36.4575 24.9407 36.1682 24.39C35.8882 23.8393 35.7482 23.214 35.7482 22.514C35.7482 21.814 35.8928 21.1933 36.1822 20.652C36.4715 20.1013 36.8728 19.672 37.3862 19.364C37.8995 19.0467 38.5062 18.888 39.2062 18.888C39.7755 18.888 40.2795 19.0047 40.7182 19.238C41.1568 19.4713 41.4975 19.798 41.7402 20.218V15.92H42.9162V26H41.8522L41.7402 24.852C41.5162 25.188 41.1942 25.4913 40.7742 25.762C40.3542 26.0327 39.8268 26.168 39.1922 26.168ZM39.3182 25.146C39.7848 25.146 40.1955 25.0387 40.5502 24.824C40.9142 24.6 41.1942 24.292 41.3902 23.9C41.5955 23.508 41.6982 23.0507 41.6982 22.528C41.6982 22.0053 41.5955 21.548 41.3902 21.156C41.1942 20.764 40.9142 20.4607 40.5502 20.246C40.1955 20.022 39.7848 19.91 39.3182 19.91C38.8608 19.91 38.4502 20.022 38.0862 20.246C37.7315 20.4607 37.4515 20.764 37.2462 21.156C37.0502 21.548 36.9522 22.0053 36.9522 22.528C36.9522 23.0507 37.0502 23.508 37.2462 23.9C37.4515 24.292 37.7315 24.6 38.0862 24.824C38.4502 25.0387 38.8608 25.146 39.3182 25.146ZM48.5383 26V19.056H49.6023L49.6863 20.064C49.9103 19.6907 50.2089 19.4013 50.5823 19.196C50.9556 18.9907 51.3756 18.888 51.8423 18.888C52.3929 18.888 52.8643 19 53.2563 19.224C53.6576 19.448 53.9656 19.7887 54.1803 20.246C54.4229 19.826 54.7543 19.4947 55.1743 19.252C55.6036 19.0093 56.0656 18.888 56.5603 18.888C57.3909 18.888 58.0536 19.14 58.5483 19.644C59.0429 20.1387 59.2903 20.904 59.2903 21.94V26H58.1283V22.066C58.1283 21.3473 57.9836 20.806 57.6943 20.442C57.4049 20.078 56.9896 19.896 56.4483 19.896C55.8883 19.896 55.4216 20.1153 55.0483 20.554C54.6843 20.9833 54.5023 21.5993 54.5023 22.402V26H53.3263V22.066C53.3263 21.3473 53.1816 20.806 52.8923 20.442C52.6029 20.078 52.1876 19.896 51.6463 19.896C51.0956 19.896 50.6336 20.1153 50.2603 20.554C49.8963 20.9833 49.7143 21.5993 49.7143 22.402V26H48.5383ZM64.1837 26.168C63.521 26.168 62.933 26.0187 62.4197 25.72C61.9064 25.412 61.5004 24.9873 61.2017 24.446C60.9124 23.9047 60.7677 23.2653 60.7677 22.528C60.7677 21.8 60.9124 21.1653 61.2017 20.624C61.491 20.0733 61.8924 19.6487 62.4057 19.35C62.9284 19.042 63.5304 18.888 64.2117 18.888C64.8837 18.888 65.4624 19.042 65.9477 19.35C66.4424 19.6487 66.8204 20.0453 67.0817 20.54C67.343 21.0347 67.4737 21.5667 67.4737 22.136C67.4737 22.2387 67.469 22.3413 67.4597 22.444C67.4597 22.5467 67.4597 22.6633 67.4597 22.794H61.9297C61.9577 23.326 62.079 23.7693 62.2937 24.124C62.5177 24.4693 62.793 24.7307 63.1197 24.908C63.4557 25.0853 63.8104 25.174 64.1837 25.174C64.669 25.174 65.075 25.062 65.4017 24.838C65.7284 24.614 65.9664 24.3107 66.1157 23.928H67.2777C67.091 24.572 66.7317 25.1087 66.1997 25.538C65.677 25.958 65.005 26.168 64.1837 26.168ZM64.1837 19.882C63.6237 19.882 63.1244 20.0547 62.6857 20.4C62.2564 20.736 62.009 21.2307 61.9437 21.884H66.3117C66.2837 21.2587 66.069 20.7687 65.6677 20.414C65.2664 20.0593 64.7717 19.882 64.1837 19.882ZM71.6924 26.168C70.8617 26.168 70.1711 25.958 69.6204 25.538C69.0697 25.118 68.7477 24.5487 68.6544 23.83H69.8584C69.9331 24.194 70.1244 24.5113 70.4324 24.782C70.7497 25.0433 71.1744 25.174 71.7064 25.174C72.2011 25.174 72.5651 25.0713 72.7984 24.866C73.0317 24.6513 73.1484 24.3993 73.1484 24.11C73.1484 23.69 72.9944 23.41 72.6864 23.27C72.3877 23.13 71.9631 23.004 71.4124 22.892C71.0391 22.8173 70.6657 22.71 70.2924 22.57C69.9191 22.43 69.6064 22.234 69.3544 21.982C69.1024 21.7207 68.9764 21.38 68.9764 20.96C68.9764 20.3533 69.2004 19.8587 69.6484 19.476C70.1057 19.084 70.7217 18.888 71.4964 18.888C72.2337 18.888 72.8357 19.0747 73.3024 19.448C73.7784 19.812 74.0537 20.3347 74.1284 21.016H72.9664C72.9197 20.6613 72.7657 20.386 72.5044 20.19C72.2524 19.9847 71.9117 19.882 71.4824 19.882C71.0624 19.882 70.7357 19.9707 70.5024 20.148C70.2784 20.3253 70.1664 20.5587 70.1664 20.848C70.1664 21.128 70.3111 21.3473 70.6004 21.506C70.8991 21.6647 71.3004 21.8 71.8044 21.912C72.2337 22.0053 72.6397 22.122 73.0224 22.262C73.4144 22.3927 73.7317 22.5933 73.9744 22.864C74.2264 23.1253 74.3524 23.508 74.3524 24.012C74.3617 24.6373 74.1237 25.1553 73.6384 25.566C73.1624 25.9673 72.5137 26.168 71.6924 26.168ZM78.6924 26.168C77.8617 26.168 77.1711 25.958 76.6204 25.538C76.0697 25.118 75.7477 24.5487 75.6544 23.83H76.8584C76.9331 24.194 77.1244 24.5113 77.4324 24.782C77.7497 25.0433 78.1744 25.174 78.7064 25.174C79.2011 25.174 79.5651 25.0713 79.7984 24.866C80.0317 24.6513 80.1484 24.3993 80.1484 24.11C80.1484 23.69 79.9944 23.41 79.6864 23.27C79.3877 23.13 78.9631 23.004 78.4124 22.892C78.0391 22.8173 77.6657 22.71 77.2924 22.57C76.9191 22.43 76.6064 22.234 76.3544 21.982C76.1024 21.7207 75.9764 21.38 75.9764 20.96C75.9764 20.3533 76.2004 19.8587 76.6484 19.476C77.1057 19.084 77.7217 18.888 78.4964 18.888C79.2337 18.888 79.8357 19.0747 80.3024 19.448C80.7784 19.812 81.0537 20.3347 81.1284 21.016H79.9664C79.9197 20.6613 79.7657 20.386 79.5044 20.19C79.2524 19.9847 78.9117 19.882 78.4824 19.882C78.0624 19.882 77.7357 19.9707 77.5024 20.148C77.2784 20.3253 77.1664 20.5587 77.1664 20.848C77.1664 21.128 77.3111 21.3473 77.6004 21.506C77.8991 21.6647 78.3004 21.8 78.8044 21.912C79.2337 22.0053 79.6397 22.122 80.0224 22.262C80.4144 22.3927 80.7317 22.5933 80.9744 22.864C81.2264 23.1253 81.3524 23.508 81.3524 24.012C81.3617 24.6373 81.1237 25.1553 80.6384 25.566C80.1624 25.9673 79.5137 26.168 78.6924 26.168ZM85.3424 26.168C84.7637 26.168 84.2831 26.07 83.9004 25.874C83.5177 25.678 83.2331 25.4167 83.0464 25.09C82.8597 24.7633 82.7664 24.4087 82.7664 24.026C82.7664 23.3167 83.0371 22.7707 83.5784 22.388C84.1197 22.0053 84.8571 21.814 85.7904 21.814H87.6664V21.73C87.6664 21.1233 87.5077 20.666 87.1904 20.358C86.8731 20.0407 86.4484 19.882 85.9164 19.882C85.4591 19.882 85.0624 19.9987 84.7264 20.232C84.3997 20.456 84.1944 20.7873 84.1104 21.226H82.9064C82.9531 20.722 83.1211 20.2973 83.4104 19.952C83.7091 19.6067 84.0777 19.3453 84.5164 19.168C84.9551 18.9813 85.4217 18.888 85.9164 18.888C86.8871 18.888 87.6151 19.1493 88.1004 19.672C88.5951 20.1853 88.8424 20.8713 88.8424 21.73V26H87.7924L87.7224 24.754C87.5264 25.146 87.2371 25.482 86.8544 25.762C86.4811 26.0327 85.9771 26.168 85.3424 26.168ZM85.5244 25.174C85.9724 25.174 86.3551 25.0573 86.6724 24.824C86.9991 24.5907 87.2464 24.2873 87.4144 23.914C87.5824 23.5407 87.6664 23.1487 87.6664 22.738V22.724H85.8884C85.1977 22.724 84.7077 22.8453 84.4184 23.088C84.1384 23.3213 83.9984 23.6153 83.9984 23.97C83.9984 24.334 84.1291 24.628 84.3904 24.852C84.6611 25.0667 85.0391 25.174 85.5244 25.174ZM93.3506 23.816C92.9586 23.816 92.5993 23.7647 92.2726 23.662L91.5726 24.32C91.6753 24.3947 91.8013 24.46 91.9506 24.516C92.1093 24.5627 92.3333 24.6093 92.6226 24.656C92.912 24.6933 93.318 24.7353 93.8406 24.782C94.774 24.8473 95.4413 25.062 95.8426 25.426C96.244 25.79 96.4446 26.266 96.4446 26.854C96.4446 27.2553 96.3326 27.638 96.1086 28.002C95.894 28.366 95.558 28.6647 95.1006 28.898C94.6526 29.1313 94.074 29.248 93.3646 29.248C92.7393 29.248 92.184 29.164 91.6986 28.996C91.2133 28.8373 90.8353 28.59 90.5646 28.254C90.294 27.9273 90.1586 27.512 90.1586 27.008C90.1586 26.7467 90.2286 26.462 90.3686 26.154C90.5086 25.8553 90.77 25.5707 91.1526 25.3C90.9473 25.216 90.77 25.1273 90.6206 25.034C90.4806 24.9313 90.35 24.8193 90.2286 24.698V24.376L91.4186 23.2C90.868 22.7333 90.5926 22.1173 90.5926 21.352C90.5926 20.8947 90.7 20.4793 90.9146 20.106C91.1293 19.7327 91.442 19.4387 91.8526 19.224C92.2633 19 92.7626 18.888 93.3506 18.888C93.752 18.888 94.116 18.944 94.4426 19.056H97.0046V19.938L95.7026 19.994C95.9733 20.386 96.1086 20.8387 96.1086 21.352C96.1086 21.8093 95.9966 22.2247 95.7726 22.598C95.558 22.9713 95.2453 23.27 94.8346 23.494C94.4333 23.7087 93.9386 23.816 93.3506 23.816ZM93.3506 22.85C93.8453 22.85 94.2373 22.724 94.5266 22.472C94.8253 22.2107 94.9746 21.8373 94.9746 21.352C94.9746 20.876 94.8253 20.512 94.5266 20.26C94.2373 19.9987 93.8453 19.868 93.3506 19.868C92.8466 19.868 92.4453 19.9987 92.1466 20.26C91.8573 20.512 91.7126 20.876 91.7126 21.352C91.7126 21.8373 91.8573 22.2107 92.1466 22.472C92.4453 22.724 92.8466 22.85 93.3506 22.85ZM91.3066 26.896C91.3066 27.3627 91.5026 27.708 91.8946 27.932C92.2866 28.1653 92.7766 28.282 93.3646 28.282C93.9433 28.282 94.4053 28.156 94.7506 27.904C95.1053 27.652 95.2826 27.316 95.2826 26.896C95.2826 26.5973 95.1613 26.336 94.9186 26.112C94.676 25.8973 94.228 25.7713 93.5746 25.734C93.0613 25.6967 92.618 25.65 92.2446 25.594C91.862 25.7993 91.61 26.0187 91.4886 26.252C91.3673 26.4947 91.3066 26.7093 91.3066 26.896ZM101.18 26.168C100.517 26.168 99.9291 26.0187 99.4158 25.72C98.9025 25.412 98.4965 24.9873 98.1978 24.446C97.9085 23.9047 97.7638 23.2653 97.7638 22.528C97.7638 21.8 97.9085 21.1653 98.1978 20.624C98.4871 20.0733 98.8885 19.6487 99.4018 19.35C99.9245 19.042 100.526 18.888 101.208 18.888C101.88 18.888 102.458 19.042 102.944 19.35C103.438 19.6487 103.816 20.0453 104.078 20.54C104.339 21.0347 104.47 21.5667 104.47 22.136C104.47 22.2387 104.465 22.3413 104.456 22.444C104.456 22.5467 104.456 22.6633 104.456 22.794H98.9258C98.9538 23.326 99.0751 23.7693 99.2898 24.124C99.5138 24.4693 99.7891 24.7307 100.116 24.908C100.452 25.0853 100.806 25.174 101.18 25.174C101.665 25.174 102.071 25.062 102.398 24.838C102.724 24.614 102.962 24.3107 103.112 23.928H104.274C104.087 24.572 103.728 25.1087 103.196 25.538C102.673 25.958 102.001 26.168 101.18 26.168ZM101.18 19.882C100.62 19.882 100.12 20.0547 99.6818 20.4C99.2525 20.736 99.0051 21.2307 98.9398 21.884H103.308C103.28 21.2587 103.065 20.7687 102.664 20.414C102.262 20.0593 101.768 19.882 101.18 19.882Z" fill="#DCDDDE"/>
</svg>
