<svg width="853" height="44" viewBox="0 0 853 44" fill="none" xmlns="http://www.w3.org/2000/svg">
<path d="M0 0H844C848.971 0 853 4.02944 853 9V35C853 39.9706 848.971 44 844 44H0V0Z" fill="#2C2D3A"/>
<path fill-rule="evenodd" clip-rule="evenodd" d="M748.886 17.9998H752C753.104 17.9998 754 18.8968 754 19.9998V21.9998H734V19.9998C734 18.8968 734.897 17.9998 736 17.9998H739.114C738.663 17.7648 738.236 17.4778 737.879 17.1218C736.709 15.9518 736.709 14.0488 737.879 12.8798C739.012 11.7468 740.986 11.7468 742.121 12.8778C743.758 14.5148 743.979 17.5958 743.998 17.9418C743.999 17.9533 743.997 17.9636 743.994 17.9738C743.992 17.9823 743.99 17.9907 743.99 17.9998H744.01C744.01 17.9907 744.008 17.9821 744.006 17.9737C744.003 17.9636 744.001 17.9537 744.002 17.9428C744.022 17.5968 744.242 14.5158 745.879 12.8788C747.014 11.7458 748.986 11.7468 750.121 12.8778C751.29 14.0498 751.29 15.9528 750.121 17.1218C749.764 17.4778 749.337 17.7648 748.886 17.9998ZM739.293 15.7078C738.903 15.3168 738.903 14.6828 739.293 14.2928C739.481 14.1038 739.732 14.0008 740 14.0008C740.268 14.0008 740.519 14.1038 740.707 14.2928C741.297 14.8828 741.641 15.9408 741.825 16.8228C740.945 16.6398 739.879 16.2938 739.293 15.7078ZM746.174 16.8248C746.359 15.9418 746.702 14.8838 747.293 14.2938C747.481 14.1038 747.732 14.0008 748 14.0008C748.268 14.0008 748.519 14.1038 748.706 14.2918C749.096 14.6828 749.097 15.3168 748.707 15.7078C748.116 16.2988 747.057 16.6428 746.174 16.8248ZM735 23.9998V29.9998C735 31.1028 735.897 31.9998 737 31.9998H743V23.9998H735ZM745 23.9998V31.9998H751C752.104 31.9998 753 31.1028 753 29.9998V23.9998H745Z" fill="#B9BBBE"/>
<path d="M773 12C771.895 12 771 12.8954 771 14V30C771 31.1046 771.895 32 773 32H793C794.105 32 795 31.1046 795 30V14C795 12.8954 794.105 12 793 12H773ZM780.764 21.448V25.48C779.9 26.044 778.88 26.356 777.74 26.356C775.112 26.356 773.66 24.628 773.66 22.072C773.66 19.504 775.232 17.764 777.788 17.764C778.808 17.764 779.66 18.004 780.32 18.376L780.044 20.164C779.42 19.768 778.688 19.456 777.836 19.456C776.408 19.456 775.712 20.512 775.712 22.06C775.712 23.62 776.432 24.712 777.86 24.712C778.316 24.712 778.64 24.616 778.976 24.448V22.972H777.428V21.448H780.764ZM782.548 17.92H784.6V26.2H782.548V17.92ZM791.472 17.92V19.636H788.556V21.328H790.86V23.044H788.556V26.2H786.516V17.92H791.472Z" fill="#B9BBBE"/>
<path d="M821 32C827.075 32 832 27.0751 832 21C832 14.9249 827.075 10 821 10C814.925 10 810 14.9249 810 21C810 27.0751 814.925 32 821 32Z" fill="#CFCFCF"/>
<path d="M816.425 24.4342C816.453 24.5436 817.139 27.1102 820.999 27.1102C824.86 27.1102 825.546 24.5436 825.574 24.4342C825.607 24.3016 825.547 24.1641 825.429 24.0956C825.31 24.0278 825.161 24.048 825.062 24.1427C825.051 24.1543 823.868 25.2769 820.999 25.2769C818.131 25.2769 816.948 24.1543 816.937 24.1433C816.878 24.0852 816.8 24.0547 816.722 24.0547C816.67 24.0547 816.618 24.0675 816.571 24.0938C816.452 24.1622 816.392 24.301 816.425 24.4342V24.4342Z" fill="#4F5660"/>
<path d="M817.333 20.3891C818.177 20.3891 818.861 19.4315 818.861 18.2502C818.861 17.0689 818.177 16.1113 817.333 16.1113C816.49 16.1113 815.806 17.0689 815.806 18.2502C815.806 19.4315 816.49 20.3891 817.333 20.3891Z" fill="#4F5660"/>
<path d="M824.666 20.3891C825.51 20.3891 826.194 19.4315 826.194 18.2502C826.194 17.0689 825.51 16.1113 824.666 16.1113C823.823 16.1113 823.139 17.0689 823.139 18.2502C823.139 19.4315 823.823 20.3891 824.666 20.3891Z" fill="#4F5660"/>
<path d="M12.1248 26.168C11.4061 26.168 10.7808 26.0373 10.2488 25.776C9.7168 25.5147 9.30613 25.1507 9.0168 24.684C8.72746 24.2173 8.5828 23.676 8.5828 23.06H9.8148C9.8148 23.4427 9.90346 23.7973 10.0808 24.124C10.2581 24.4413 10.5148 24.698 10.8508 24.894C11.1961 25.0807 11.6208 25.174 12.1248 25.174C12.7875 25.174 13.3008 25.0153 13.6648 24.698C14.0288 24.3807 14.2108 23.984 14.2108 23.508C14.2108 23.116 14.1268 22.8033 13.9588 22.57C13.7908 22.3273 13.5621 22.1313 13.2728 21.982C12.9928 21.8327 12.6661 21.702 12.2928 21.59C11.9288 21.478 11.5461 21.352 11.1448 21.212C10.3888 20.9507 9.8288 20.6287 9.4648 20.246C9.1008 19.854 8.9188 19.3453 8.9188 18.72C8.90946 18.1973 9.0308 17.7353 9.2828 17.334C9.5348 16.9233 9.88946 16.606 10.3468 16.382C10.8135 16.1487 11.3641 16.032 11.9988 16.032C12.6241 16.032 13.1655 16.1487 13.6228 16.382C14.0895 16.6153 14.4488 16.9373 14.7008 17.348C14.9621 17.7587 15.0975 18.2253 15.1068 18.748H13.8748C13.8748 18.4773 13.8048 18.2113 13.6648 17.95C13.5248 17.6793 13.3101 17.46 13.0208 17.292C12.7408 17.124 12.3861 17.04 11.9568 17.04C11.4248 17.0307 10.9861 17.166 10.6408 17.446C10.3048 17.726 10.1368 18.1133 10.1368 18.608C10.1368 19.028 10.2535 19.35 10.4868 19.574C10.7295 19.798 11.0655 19.9847 11.4948 20.134C11.9241 20.274 12.4188 20.4373 12.9788 20.624C13.4455 20.792 13.8655 20.988 14.2388 21.212C14.6121 21.436 14.9015 21.7253 15.1068 22.08C15.3215 22.4347 15.4288 22.8873 15.4288 23.438C15.4288 23.9047 15.3075 24.348 15.0648 24.768C14.8221 25.1787 14.4535 25.5147 13.9588 25.776C13.4735 26.0373 12.8621 26.168 12.1248 26.168ZM20.1485 26.168C19.4859 26.168 18.8979 26.0187 18.3845 25.72C17.8712 25.412 17.4652 24.9873 17.1665 24.446C16.8772 23.9047 16.7325 23.2653 16.7325 22.528C16.7325 21.8 16.8772 21.1653 17.1665 20.624C17.4559 20.0733 17.8572 19.6487 18.3705 19.35C18.8932 19.042 19.4952 18.888 20.1765 18.888C20.8485 18.888 21.4272 19.042 21.9125 19.35C22.4072 19.6487 22.7852 20.0453 23.0465 20.54C23.3079 21.0347 23.4385 21.5667 23.4385 22.136C23.4385 22.2387 23.4339 22.3413 23.4245 22.444C23.4245 22.5467 23.4245 22.6633 23.4245 22.794H17.8945C17.9225 23.326 18.0439 23.7693 18.2585 24.124C18.4825 24.4693 18.7579 24.7307 19.0845 24.908C19.4205 25.0853 19.7752 25.174 20.1485 25.174C20.6339 25.174 21.0399 25.062 21.3665 24.838C21.6932 24.614 21.9312 24.3107 22.0805 23.928H23.2425C23.0559 24.572 22.6965 25.1087 22.1645 25.538C21.6419 25.958 20.9699 26.168 20.1485 26.168ZM20.1485 19.882C19.5885 19.882 19.0892 20.0547 18.6505 20.4C18.2212 20.736 17.9739 21.2307 17.9085 21.884H22.2765C22.2485 21.2587 22.0339 20.7687 21.6325 20.414C21.2312 20.0593 20.7365 19.882 20.1485 19.882ZM24.9973 26V19.056H26.0613L26.1313 20.302C26.3553 19.8633 26.6773 19.518 27.0973 19.266C27.5173 19.014 27.9933 18.888 28.5253 18.888C29.3466 18.888 29.9999 19.14 30.4853 19.644C30.9799 20.1387 31.2272 20.904 31.2272 21.94V26H30.0513V22.066C30.0513 20.6193 29.4539 19.896 28.2593 19.896C27.6619 19.896 27.1626 20.1153 26.7613 20.554C26.3693 20.9833 26.1733 21.5993 26.1733 22.402V26H24.9973ZM36.159 26.168C35.4683 26.168 34.8616 26.0093 34.339 25.692C33.8256 25.3747 33.4243 24.9407 33.135 24.39C32.855 23.8393 32.715 23.214 32.715 22.514C32.715 21.814 32.8596 21.1933 33.149 20.652C33.4383 20.1013 33.8396 19.672 34.353 19.364C34.8663 19.0467 35.473 18.888 36.173 18.888C36.7423 18.888 37.2463 19.0047 37.685 19.238C38.1236 19.4713 38.4643 19.798 38.707 20.218V15.92H39.883V26H38.819L38.707 24.852C38.483 25.188 38.161 25.4913 37.741 25.762C37.321 26.0327 36.7936 26.168 36.159 26.168ZM36.285 25.146C36.7516 25.146 37.1623 25.0387 37.517 24.824C37.881 24.6 38.161 24.292 38.357 23.9C38.5623 23.508 38.665 23.0507 38.665 22.528C38.665 22.0053 38.5623 21.548 38.357 21.156C38.161 20.764 37.881 20.4607 37.517 20.246C37.1623 20.022 36.7516 19.91 36.285 19.91C35.8276 19.91 35.417 20.022 35.053 20.246C34.6983 20.4607 34.4183 20.764 34.213 21.156C34.017 21.548 33.919 22.0053 33.919 22.528C33.919 23.0507 34.017 23.508 34.213 23.9C34.4183 24.292 34.6983 24.6 35.053 24.824C35.417 25.0387 35.8276 25.146 36.285 25.146ZM45.5051 26V19.056H46.5691L46.6531 20.064C46.8771 19.6907 47.1757 19.4013 47.5491 19.196C47.9224 18.9907 48.3424 18.888 48.8091 18.888C49.3597 18.888 49.8311 19 50.2231 19.224C50.6244 19.448 50.9324 19.7887 51.1471 20.246C51.3897 19.826 51.7211 19.4947 52.1411 19.252C52.5704 19.0093 53.0324 18.888 53.5271 18.888C54.3577 18.888 55.0204 19.14 55.5151 19.644C56.0097 20.1387 56.2571 20.904 56.2571 21.94V26H55.0951V22.066C55.0951 21.3473 54.9504 20.806 54.6611 20.442C54.3717 20.078 53.9564 19.896 53.4151 19.896C52.8551 19.896 52.3884 20.1153 52.0151 20.554C51.6511 20.9833 51.4691 21.5993 51.4691 22.402V26H50.2931V22.066C50.2931 21.3473 50.1484 20.806 49.8591 20.442C49.5697 20.078 49.1544 19.896 48.6131 19.896C48.0624 19.896 47.6004 20.1153 47.2271 20.554C46.8631 20.9833 46.6811 21.5993 46.6811 22.402V26H45.5051ZM61.1505 26.168C60.4878 26.168 59.8998 26.0187 59.3865 25.72C58.8732 25.412 58.4672 24.9873 58.1685 24.446C57.8792 23.9047 57.7345 23.2653 57.7345 22.528C57.7345 21.8 57.8792 21.1653 58.1685 20.624C58.4578 20.0733 58.8592 19.6487 59.3725 19.35C59.8952 19.042 60.4972 18.888 61.1785 18.888C61.8505 18.888 62.4292 19.042 62.9145 19.35C63.4092 19.6487 63.7872 20.0453 64.0485 20.54C64.3098 21.0347 64.4405 21.5667 64.4405 22.136C64.4405 22.2387 64.4358 22.3413 64.4265 22.444C64.4265 22.5467 64.4265 22.6633 64.4265 22.794H58.8965C58.9245 23.326 59.0458 23.7693 59.2605 24.124C59.4845 24.4693 59.7598 24.7307 60.0865 24.908C60.4225 25.0853 60.7772 25.174 61.1505 25.174C61.6358 25.174 62.0418 25.062 62.3685 24.838C62.6952 24.614 62.9332 24.3107 63.0825 23.928H64.2445C64.0578 24.572 63.6985 25.1087 63.1665 25.538C62.6438 25.958 61.9718 26.168 61.1505 26.168ZM61.1505 19.882C60.5905 19.882 60.0912 20.0547 59.6525 20.4C59.2232 20.736 58.9758 21.2307 58.9105 21.884H63.2785C63.2505 21.2587 63.0358 20.7687 62.6345 20.414C62.2332 20.0593 61.7385 19.882 61.1505 19.882ZM68.6592 26.168C67.8285 26.168 67.1379 25.958 66.5872 25.538C66.0365 25.118 65.7145 24.5487 65.6212 23.83H66.8252C66.8999 24.194 67.0912 24.5113 67.3992 24.782C67.7165 25.0433 68.1412 25.174 68.6732 25.174C69.1679 25.174 69.5319 25.0713 69.7652 24.866C69.9985 24.6513 70.1152 24.3993 70.1152 24.11C70.1152 23.69 69.9612 23.41 69.6532 23.27C69.3545 23.13 68.9299 23.004 68.3792 22.892C68.0059 22.8173 67.6325 22.71 67.2592 22.57C66.8859 22.43 66.5732 22.234 66.3212 21.982C66.0692 21.7207 65.9432 21.38 65.9432 20.96C65.9432 20.3533 66.1672 19.8587 66.6152 19.476C67.0725 19.084 67.6885 18.888 68.4632 18.888C69.2005 18.888 69.8025 19.0747 70.2692 19.448C70.7452 19.812 71.0205 20.3347 71.0952 21.016H69.9332C69.8865 20.6613 69.7325 20.386 69.4712 20.19C69.2192 19.9847 68.8785 19.882 68.4492 19.882C68.0292 19.882 67.7025 19.9707 67.4692 20.148C67.2452 20.3253 67.1332 20.5587 67.1332 20.848C67.1332 21.128 67.2779 21.3473 67.5672 21.506C67.8659 21.6647 68.2672 21.8 68.7712 21.912C69.2005 22.0053 69.6065 22.122 69.9892 22.262C70.3812 22.3927 70.6985 22.5933 70.9412 22.864C71.1932 23.1253 71.3192 23.508 71.3192 24.012C71.3285 24.6373 71.0905 25.1553 70.6052 25.566C70.1292 25.9673 69.4805 26.168 68.6592 26.168ZM75.6592 26.168C74.8285 26.168 74.1379 25.958 73.5872 25.538C73.0365 25.118 72.7145 24.5487 72.6212 23.83H73.8252C73.8999 24.194 74.0912 24.5113 74.3992 24.782C74.7165 25.0433 75.1412 25.174 75.6732 25.174C76.1679 25.174 76.5319 25.0713 76.7652 24.866C76.9985 24.6513 77.1152 24.3993 77.1152 24.11C77.1152 23.69 76.9612 23.41 76.6532 23.27C76.3545 23.13 75.9299 23.004 75.3792 22.892C75.0059 22.8173 74.6325 22.71 74.2592 22.57C73.8859 22.43 73.5732 22.234 73.3212 21.982C73.0692 21.7207 72.9432 21.38 72.9432 20.96C72.9432 20.3533 73.1672 19.8587 73.6152 19.476C74.0725 19.084 74.6885 18.888 75.4632 18.888C76.2005 18.888 76.8025 19.0747 77.2692 19.448C77.7452 19.812 78.0205 20.3347 78.0952 21.016H76.9332C76.8865 20.6613 76.7325 20.386 76.4712 20.19C76.2192 19.9847 75.8785 19.882 75.4492 19.882C75.0292 19.882 74.7025 19.9707 74.4692 20.148C74.2452 20.3253 74.1332 20.5587 74.1332 20.848C74.1332 21.128 74.2779 21.3473 74.5672 21.506C74.8659 21.6647 75.2672 21.8 75.7712 21.912C76.2005 22.0053 76.6065 22.122 76.9892 22.262C77.3812 22.3927 77.6985 22.5933 77.9412 22.864C78.1932 23.1253 78.3192 23.508 78.3192 24.012C78.3285 24.6373 78.0905 25.1553 77.6052 25.566C77.1292 25.9673 76.4805 26.168 75.6592 26.168ZM82.3092 26.168C81.7305 26.168 81.2499 26.07 80.8672 25.874C80.4845 25.678 80.1999 25.4167 80.0132 25.09C79.8265 24.7633 79.7332 24.4087 79.7332 24.026C79.7332 23.3167 80.0039 22.7707 80.5452 22.388C81.0865 22.0053 81.8239 21.814 82.7572 21.814H84.6332V21.73C84.6332 21.1233 84.4745 20.666 84.1572 20.358C83.8399 20.0407 83.4152 19.882 82.8832 19.882C82.4259 19.882 82.0292 19.9987 81.6932 20.232C81.3665 20.456 81.1612 20.7873 81.0772 21.226H79.8732C79.9199 20.722 80.0879 20.2973 80.3772 19.952C80.6759 19.6067 81.0445 19.3453 81.4832 19.168C81.9219 18.9813 82.3885 18.888 82.8832 18.888C83.8539 18.888 84.5819 19.1493 85.0672 19.672C85.5619 20.1853 85.8092 20.8713 85.8092 21.73V26H84.7592L84.6892 24.754C84.4932 25.146 84.2039 25.482 83.8212 25.762C83.4479 26.0327 82.9439 26.168 82.3092 26.168ZM82.4912 25.174C82.9392 25.174 83.3219 25.0573 83.6392 24.824C83.9659 24.5907 84.2132 24.2873 84.3812 23.914C84.5492 23.5407 84.6332 23.1487 84.6332 22.738V22.724H82.8552C82.1645 22.724 81.6745 22.8453 81.3852 23.088C81.1052 23.3213 80.9652 23.6153 80.9652 23.97C80.9652 24.334 81.0959 24.628 81.3572 24.852C81.6279 25.0667 82.0059 25.174 82.4912 25.174ZM90.3174 23.816C89.9254 23.816 89.5661 23.7647 89.2394 23.662L88.5394 24.32C88.6421 24.3947 88.7681 24.46 88.9174 24.516C89.0761 24.5627 89.3001 24.6093 89.5894 24.656C89.8788 24.6933 90.2848 24.7353 90.8074 24.782C91.7408 24.8473 92.4081 25.062 92.8094 25.426C93.2108 25.79 93.4114 26.266 93.4114 26.854C93.4114 27.2553 93.2994 27.638 93.0754 28.002C92.8608 28.366 92.5248 28.6647 92.0674 28.898C91.6194 29.1313 91.0408 29.248 90.3314 29.248C89.7061 29.248 89.1508 29.164 88.6654 28.996C88.1801 28.8373 87.8021 28.59 87.5314 28.254C87.2608 27.9273 87.1254 27.512 87.1254 27.008C87.1254 26.7467 87.1954 26.462 87.3354 26.154C87.4754 25.8553 87.7368 25.5707 88.1194 25.3C87.9141 25.216 87.7368 25.1273 87.5874 25.034C87.4474 24.9313 87.3168 24.8193 87.1954 24.698V24.376L88.3854 23.2C87.8348 22.7333 87.5594 22.1173 87.5594 21.352C87.5594 20.8947 87.6668 20.4793 87.8814 20.106C88.0961 19.7327 88.4088 19.4387 88.8194 19.224C89.2301 19 89.7294 18.888 90.3174 18.888C90.7188 18.888 91.0828 18.944 91.4094 19.056H93.9714V19.938L92.6694 19.994C92.9401 20.386 93.0754 20.8387 93.0754 21.352C93.0754 21.8093 92.9634 22.2247 92.7394 22.598C92.5248 22.9713 92.2121 23.27 91.8014 23.494C91.4001 23.7087 90.9054 23.816 90.3174 23.816ZM90.3174 22.85C90.8121 22.85 91.2041 22.724 91.4934 22.472C91.7921 22.2107 91.9414 21.8373 91.9414 21.352C91.9414 20.876 91.7921 20.512 91.4934 20.26C91.2041 19.9987 90.8121 19.868 90.3174 19.868C89.8134 19.868 89.4121 19.9987 89.1134 20.26C88.8241 20.512 88.6794 20.876 88.6794 21.352C88.6794 21.8373 88.8241 22.2107 89.1134 22.472C89.4121 22.724 89.8134 22.85 90.3174 22.85ZM88.2734 26.896C88.2734 27.3627 88.4694 27.708 88.8614 27.932C89.2534 28.1653 89.7434 28.282 90.3314 28.282C90.9101 28.282 91.3721 28.156 91.7174 27.904C92.0721 27.652 92.2494 27.316 92.2494 26.896C92.2494 26.5973 92.1281 26.336 91.8854 26.112C91.6428 25.8973 91.1948 25.7713 90.5414 25.734C90.0281 25.6967 89.5848 25.65 89.2114 25.594C88.8288 25.7993 88.5768 26.0187 88.4554 26.252C88.3341 26.4947 88.2734 26.7093 88.2734 26.896ZM98.1466 26.168C97.4839 26.168 96.8959 26.0187 96.3826 25.72C95.8693 25.412 95.4633 24.9873 95.1646 24.446C94.8753 23.9047 94.7306 23.2653 94.7306 22.528C94.7306 21.8 94.8753 21.1653 95.1646 20.624C95.4539 20.0733 95.8553 19.6487 96.3686 19.35C96.8913 19.042 97.4933 18.888 98.1746 18.888C98.8466 18.888 99.4253 19.042 99.9106 19.35C100.405 19.6487 100.783 20.0453 101.045 20.54C101.306 21.0347 101.437 21.5667 101.437 22.136C101.437 22.2387 101.432 22.3413 101.423 22.444C101.423 22.5467 101.423 22.6633 101.423 22.794H95.8926C95.9206 23.326 96.0419 23.7693 96.2566 24.124C96.4806 24.4693 96.7559 24.7307 97.0826 24.908C97.4186 25.0853 97.7733 25.174 98.1466 25.174C98.6319 25.174 99.0379 25.062 99.3646 24.838C99.6913 24.614 99.9293 24.3107 100.079 23.928H101.241C101.054 24.572 100.695 25.1087 100.163 25.538C99.6399 25.958 98.9679 26.168 98.1466 26.168ZM98.1466 19.882C97.5866 19.882 97.0873 20.0547 96.6486 20.4C96.2193 20.736 95.9719 21.2307 95.9066 21.884H100.275C100.247 21.2587 100.032 20.7687 99.6306 20.414C99.2293 20.0593 98.7346 19.882 98.1466 19.882Z" fill="#DCDDDE"/>
</svg>
