<svg width="29" height="30" viewBox="0 0 29 30" fill="none" xmlns="http://www.w3.org/2000/svg">
<path d="M10.7669 1.93359H3.30026C2.26933 1.93359 1.43359 2.76933 1.43359 3.80026V11.2669C1.43359 12.2979 2.26933 13.1336 3.30026 13.1336H10.7669C11.7979 13.1336 12.6336 12.2979 12.6336 11.2669V3.80026C12.6336 2.76933 11.7979 1.93359 10.7669 1.93359Z" stroke="#F2F2F2" stroke-width="2"/>
<path d="M25.7003 1.93359H18.2336C17.2027 1.93359 16.3669 2.76933 16.3669 3.80026V11.2669C16.3669 12.2979 17.2027 13.1336 18.2336 13.1336H25.7003C26.7312 13.1336 27.5669 12.2979 27.5669 11.2669V3.80026C27.5669 2.76933 26.7312 1.93359 25.7003 1.93359Z" stroke="#F2F2F2" stroke-width="2"/>
<path d="M25.7003 16.8669H18.2336C17.2027 16.8669 16.3669 17.7027 16.3669 18.7336V26.2003C16.3669 27.2312 17.2027 28.0669 18.2336 28.0669H25.7003C26.7312 28.0669 27.5669 27.2312 27.5669 26.2003V18.7336C27.5669 17.7027 26.7312 16.8669 25.7003 16.8669Z" stroke="#F2F2F2" stroke-width="2"/>
<path d="M10.7669 16.8669H3.30026C2.26933 16.8669 1.43359 17.7027 1.43359 18.7336V26.2003C1.43359 27.2312 2.26933 28.0669 3.30026 28.0669H10.7669C11.7979 28.0669 12.6336 27.2312 12.6336 26.2003V18.7336C12.6336 17.7027 11.7979 16.8669 10.7669 16.8669Z" stroke="#F2F2F2" stroke-width="2"/>
</svg>
