<svg width="29" height="30" viewBox="0 0 29 30" fill="none" xmlns="http://www.w3.org/2000/svg">
<path d="M14.5003 1.93359L15.1511 1.17434C14.7766 0.853346 14.224 0.853346 13.8495 1.17434L14.5003 1.93359ZM1.43359 13.1336L0.782802 12.3743L0.433594 12.6737V13.1336H1.43359ZM10.7669 28.0669V29.0669C11.3192 29.0669 11.7669 28.6192 11.7669 28.0669H10.7669ZM18.2336 28.0669H17.2336C17.2336 28.6192 17.6813 29.0669 18.2336 29.0669V28.0669ZM27.5669 13.1336H28.5669V12.6737L28.2177 12.3743L27.5669 13.1336ZM3.30026 29.0669H10.7669V27.0669H3.30026V29.0669ZM28.2177 12.3743L15.1511 1.17434L13.8495 2.69285L26.9161 13.8928L28.2177 12.3743ZM13.8495 1.17434L0.782802 12.3743L2.08439 13.8928L15.1511 2.69285L13.8495 1.17434ZM11.7669 28.0669V22.4669H9.76693V28.0669H11.7669ZM17.2336 22.4669V28.0669H19.2336V22.4669H17.2336ZM18.2336 29.0669H25.7003V27.0669H18.2336V29.0669ZM28.5669 26.2003V13.1336H26.5669V26.2003H28.5669ZM0.433594 13.1336V26.2003H2.43359V13.1336H0.433594ZM14.5003 19.7336C16.0098 19.7336 17.2336 20.9573 17.2336 22.4669H19.2336C19.2336 19.8528 17.1144 17.7336 14.5003 17.7336V19.7336ZM14.5003 17.7336C11.8861 17.7336 9.76693 19.8528 9.76693 22.4669H11.7669C11.7669 20.9573 12.9907 19.7336 14.5003 19.7336V17.7336ZM25.7003 29.0669C27.2835 29.0669 28.5669 27.7835 28.5669 26.2003H26.5669C26.5669 26.6789 26.1789 27.0669 25.7003 27.0669V29.0669ZM3.30026 27.0669C2.82161 27.0669 2.43359 26.6789 2.43359 26.2003H0.433594C0.433594 27.7835 1.71704 29.0669 3.30026 29.0669V27.0669Z" fill="white"/>
</svg>
