<svg width="45" height="36" viewBox="0 0 45 36" fill="none" xmlns="http://www.w3.org/2000/svg">
<path d="M16.416 2.97461H28.5833V24.8371H16.416V2.97461Z" fill="#FF5F00"/>
<path d="M8.18925 35.8399V33.5224C8.18925 32.6339 7.64837 32.0546 6.72127 32.0546C6.2578 32.0546 5.75563 32.2091 5.40794 32.7113C5.13768 32.2864 4.75146 32.0546 4.17204 32.0546C3.78564 32.0546 3.3996 32.1704 3.09045 32.5953V32.1319H2.2793V35.8399H3.09045V33.7927C3.09045 33.1362 3.43813 32.8271 3.97902 32.8271C4.51955 32.8271 4.79017 33.1748 4.79017 33.7927V35.8399H5.60132V33.7927C5.60132 33.1362 5.98736 32.8271 6.48953 32.8271C7.03042 32.8271 7.30068 33.1748 7.30068 33.7927V35.8399H8.18925V35.8399ZM20.2018 32.1319H18.8887V31.0117H18.0775V32.1319H17.3436V32.8656H18.0774V34.5653C18.0774 35.4152 18.425 35.9172 19.3522 35.9172C19.6998 35.9172 20.0859 35.8014 20.3565 35.6469L20.1246 34.9515C19.8929 35.106 19.6226 35.1447 19.4294 35.1447C19.0432 35.1447 18.8887 34.913 18.8887 34.5266V32.8656H20.2018V32.1319V32.1319ZM27.0774 32.0545C26.614 32.0545 26.305 32.2864 26.1118 32.5953V32.1319H25.3006V35.8399H26.1118V33.7542C26.1118 33.1362 26.3821 32.7885 26.8842 32.7885C27.0387 32.7885 27.2319 32.8272 27.3864 32.8658L27.6181 32.0933C27.4637 32.0546 27.2319 32.0546 27.0774 32.0546V32.0545ZM16.687 32.4408C16.3006 32.1704 15.7599 32.0546 15.1805 32.0546C14.2535 32.0546 13.6356 32.5181 13.6356 33.252C13.6356 33.8701 14.099 34.2176 14.9102 34.3336L15.2964 34.3723C15.7213 34.4494 15.9531 34.5653 15.9531 34.7585C15.9531 35.0288 15.6441 35.222 15.1032 35.222C14.5625 35.222 14.1376 35.0288 13.8671 34.8358L13.4809 35.4537C13.9058 35.7627 14.4853 35.9172 15.0645 35.9172C16.1461 35.9172 16.7642 35.4152 16.7642 34.7198C16.7642 34.0632 16.262 33.7155 15.4894 33.5997L15.1032 33.561C14.7555 33.5223 14.4853 33.4452 14.4853 33.2135C14.4853 32.943 14.7555 32.7885 15.1805 32.7885C15.6441 32.7885 16.1076 32.9816 16.3393 33.0975L16.687 32.4408V32.4408ZM38.2405 32.0546C37.7769 32.0546 37.4679 32.2864 37.2747 32.5953V32.1319H36.4635V35.8399H37.2747V33.7542C37.2747 33.1362 37.5451 32.7885 38.0471 32.7885C38.2018 32.7885 38.395 32.8272 38.5495 32.8658L38.7812 32.0933C38.6267 32.0546 38.395 32.0546 38.2405 32.0546V32.0546ZM27.8886 33.9859C27.8886 35.106 28.661 35.9172 29.8586 35.9172C30.3993 35.9172 30.7855 35.8014 31.1717 35.4924L30.7855 34.8358C30.4765 35.0675 30.1675 35.1833 29.8199 35.1833C29.1632 35.1833 28.6997 34.7198 28.6997 33.9859C28.6997 33.2907 29.1632 32.8271 29.8199 32.7885C30.1675 32.7885 30.4765 32.9043 30.7855 33.1362L31.1717 32.4796C30.7855 32.1704 30.3993 32.0546 29.8586 32.0546C28.661 32.0546 27.8886 32.8658 27.8886 33.9859ZM35.3821 33.9859V32.1319H34.571V32.5953C34.3005 32.2478 33.9143 32.0546 33.4121 32.0546C32.3693 32.0546 31.5581 32.8658 31.5581 33.9859C31.5581 35.106 32.3693 35.9172 33.4121 35.9172C33.9529 35.9172 34.3392 35.7242 34.571 35.3765V35.8399H35.3821V33.9859V33.9859ZM32.4078 33.9859C32.4078 33.3292 32.8327 32.7885 33.5279 32.7885C34.1846 32.7885 34.6482 33.2907 34.6482 33.9859C34.6482 34.6426 34.1846 35.1833 33.5279 35.1833C32.8327 35.1446 32.4078 34.6426 32.4078 33.9859V33.9859ZM22.7127 32.0546C21.6311 32.0546 20.8585 32.8271 20.8585 33.9859C20.8585 35.1447 21.6309 35.9172 22.7512 35.9172C23.292 35.9172 23.8328 35.7627 24.2578 35.4152L23.8714 34.8358C23.5624 35.0675 23.1762 35.222 22.79 35.222C22.2878 35.222 21.7856 34.9903 21.6697 34.3334H24.4123V34.0246C24.451 32.8271 23.7556 32.0546 22.7125 32.0546H22.7127ZM22.7127 32.7498C23.2147 32.7498 23.5626 33.059 23.6396 33.6384H21.7084C21.7856 33.1362 22.1333 32.7498 22.7127 32.7498ZM42.837 33.9859V30.6641H42.0258V32.5953C41.7554 32.2478 41.3692 32.0546 40.867 32.0546C39.8241 32.0546 39.0129 32.8658 39.0129 33.9859C39.0129 35.106 39.8241 35.9172 40.867 35.9172C41.4079 35.9172 41.7941 35.7242 42.0258 35.3765V35.8399H42.837V33.9859V33.9859ZM39.8628 33.9859C39.8628 33.3292 40.2876 32.7885 40.9829 32.7885C41.6396 32.7885 42.1031 33.2907 42.1031 33.9859C42.1031 34.6426 41.6396 35.1833 40.9829 35.1833C40.2876 35.1446 39.8628 34.6426 39.8628 33.9859V33.9859ZM12.747 33.9859V32.1319H11.9359V32.5953C11.6654 32.2478 11.2792 32.0546 10.777 32.0546C9.73413 32.0546 8.92298 32.8658 8.92298 33.9859C8.92298 35.106 9.73413 35.9172 10.777 35.9172C11.3179 35.9172 11.7041 35.7242 11.9359 35.3765V35.8399H12.747V33.9859V33.9859ZM9.73413 33.9859C9.73413 33.3292 10.1591 32.7885 10.8543 32.7885C11.5109 32.7885 11.9746 33.2907 11.9746 33.9859C11.9746 34.6426 11.5109 35.1833 10.8543 35.1833C10.1591 35.1446 9.73413 34.6426 9.73413 33.9859V33.9859Z" fill="white"/>
<path d="M17.1888 13.9055C17.1888 9.46353 19.2746 5.52356 22.4805 2.97416C20.1244 1.12013 17.1503 0 13.9057 0C6.21876 0 0 6.21876 0 13.9055C0 21.5921 6.21876 27.811 13.9055 27.811C17.1501 27.811 20.1243 26.6909 22.4805 24.8367C19.2746 22.326 17.1888 18.3475 17.1888 13.9055V13.9055Z" fill="#EB001B"/>
<path d="M44.999 13.9055C44.999 21.5921 38.7803 27.811 31.0935 27.811C27.8489 27.811 24.8748 26.6909 22.5186 24.8367C25.7632 22.2874 27.8104 18.3475 27.8104 13.9055C27.8104 9.46353 25.7244 5.52356 22.5186 2.97416C24.8746 1.12013 27.8489 0 31.0935 0C38.7803 0 44.9992 6.25747 44.9992 13.9055H44.999Z" fill="#F79E1B"/>
</svg>
