<svg width="29" height="30" viewBox="0 0 29 30" fill="none" xmlns="http://www.w3.org/2000/svg">
<path d="M27.5669 1.93359L28.4861 2.32751C28.6471 1.95167 28.5632 1.51563 28.274 1.22649C27.9849 0.937348 27.5488 0.853373 27.173 1.01445L27.5669 1.93359ZM1.43359 13.1336L1.03967 12.2144C0.694509 12.3624 0.461317 12.6912 0.435889 13.0659C0.410461 13.4405 0.597084 13.7979 0.919098 13.9911L1.43359 13.1336ZM16.3669 28.0669L15.5094 28.5814C15.7026 28.9034 16.06 29.0901 16.4346 29.0646C16.8093 29.0392 17.1381 28.806 17.2861 28.4608L16.3669 28.0669ZM27.173 1.01445L1.03967 12.2144L1.82751 14.0527L27.9608 2.85274L27.173 1.01445ZM0.919098 13.9911L10.2524 19.5911L11.2814 17.8761L1.94809 12.2761L0.919098 13.9911ZM9.90943 19.2481L15.5094 28.5814L17.2244 27.5524L11.6244 18.2191L9.90943 19.2481ZM17.2861 28.4608L28.4861 2.32751L26.6478 1.53967L15.4478 27.673L17.2861 28.4608ZM26.8598 1.22649L10.0598 18.0265L11.474 19.4407L28.274 2.6407L26.8598 1.22649Z" fill="white"/>
</svg>
