<svg width="20" height="20" viewBox="0 0 20 20" fill="none" xmlns="http://www.w3.org/2000/svg">
<path fill-rule="evenodd" clip-rule="evenodd" d="M16.4487 8.33268H18.3337V11.666H16.4495C16.2487 12.4418 15.917 13.1643 15.4712 13.8027L16.667 14.9993L15.0003 16.666L13.8045 15.4693C13.1645 15.9152 12.4437 16.2477 11.667 16.4477V18.3327H8.33366V16.4477C7.55783 16.2477 6.83616 15.9152 6.19699 15.4693L5.00033 16.666L3.33366 14.9993L4.53033 13.8027C4.08449 13.1652 3.75199 12.4427 3.55199 11.666H1.66699V8.33268H3.55199C3.75199 7.55602 4.08366 6.83435 4.53033 6.19602L3.33366 4.99935L5.00033 3.33268L6.19699 4.52935C6.83533 4.08268 7.55699 3.75102 8.33366 3.55102V1.66602H11.667V3.55018C12.4437 3.75102 13.1645 4.08268 13.8045 4.52852L15.0003 3.33185L16.667 4.99852L15.4703 6.19602C15.9162 6.83435 16.2487 7.55685 16.4487 8.33268ZM10.0003 13.3327C11.8412 13.3327 13.3337 11.8403 13.3337 9.99935C13.3337 8.1584 11.8412 6.66602 10.0003 6.66602C8.15938 6.66602 6.66699 8.1584 6.66699 9.99935C6.66699 11.8403 8.15938 13.3327 10.0003 13.3327Z" fill="#B9BBBE"/>
</svg>
