<svg width="20" height="20" viewBox="0 0 20 20" fill="none" xmlns="http://www.w3.org/2000/svg">
<path d="M10.0003 1.66992C5.40533 1.66992 1.66699 5.40742 1.66699 10.0033V16.67C1.66699 17.59 2.41283 18.3366 3.33366 18.3366H5.00033C5.92033 18.3366 6.66699 17.59 6.66699 16.67V14.17C6.66699 13.25 5.92033 12.5033 5.00033 12.5033H3.33366V10.0033C3.33366 6.32659 6.32449 3.33659 10.0003 3.33659C13.6762 3.33659 16.667 6.32659 16.667 10.0033V12.5033H15.0003C14.0803 12.5033 13.3337 13.25 13.3337 14.17V16.67C13.3337 17.59 14.0803 18.3366 15.0003 18.3366H16.667C17.587 18.3366 18.3337 17.59 18.3337 16.67V10.0033C18.3337 5.40742 14.5953 1.66992 10.0003 1.66992Z" fill="#B9BBBE"/>
</svg>
