<svg width="20" height="20" viewBox="0 0 20 20" fill="none" xmlns="http://www.w3.org/2000/svg">
<path fill-rule="evenodd" clip-rule="evenodd" d="M12.492 9.16602C12.492 10.5493 11.3837 11.666 10.0003 11.666C8.61699 11.666 7.50033 10.5493 7.50033 9.16602V4.16602C7.50033 2.78268 8.61699 1.66602 10.0003 1.66602C11.3837 1.66602 12.5003 2.78268 12.5003 4.16602L12.492 9.16602ZM10.0003 13.416C12.3003 13.416 14.417 11.666 14.417 9.16602H15.8337C15.8337 12.016 13.567 14.366 10.8337 14.766V17.4993H9.16699V14.766C6.43366 14.3577 4.16699 12.0077 4.16699 9.16602H5.58366C5.58366 11.666 7.70033 13.416 10.0003 13.416ZM10.0003 3.33268C9.33366 3.33268 9.16699 3.88824 9.16699 4.16602V9.16602C9.16699 9.44377 9.33366 9.99935 10.0003 9.99935C10.667 9.99935 10.8337 9.44377 10.8337 9.16602V4.16602C10.8337 3.88824 10.667 3.33268 10.0003 3.33268Z" fill="#B9BBBE"/>
<path fill-rule="evenodd" clip-rule="evenodd" d="M12.492 9.16602C12.492 10.5493 11.3837 11.666 10.0003 11.666C8.61699 11.666 7.50033 10.5493 7.50033 9.16602V4.16602C7.50033 2.78268 8.61699 1.66602 10.0003 1.66602C11.3837 1.66602 12.5003 2.78268 12.5003 4.16602L12.492 9.16602ZM10.0003 13.416C12.3003 13.416 14.417 11.666 14.417 9.16602H15.8337C15.8337 12.016 13.567 14.366 10.8337 14.766V18.3327H9.16699V14.766C6.43366 14.3577 4.16699 12.0077 4.16699 9.16602H5.58366C5.58366 11.666 7.70033 13.416 10.0003 13.416Z" fill="#B9BBBE"/>
</svg>
